#tb 0: 71/1000
0,          0,          0,        1,   192000, 0x69f6a5f6
0,          1,          1,        1,   192000, 0xc741d0a6
0,          2,          2,        1,   192000, 0xba31e7a4
0,          3,          3,        1,   192000, 0x7dc45080
0,          4,          4,        1,   192000, 0x1c91dad5
0,          5,          5,        1,   192000, 0x564b69b1
0,          6,          6,        1,   192000, 0xdd9d9ae8
0,          7,          7,        1,   192000, 0x605c05e1
0,          8,          8,        1,   192000, 0xa5341ddb
0,          9,          9,        1,   192000, 0x1ebff8ba
0,         10,         10,        1,   192000, 0x240df237
0,         11,         11,        1,   192000, 0xac641867
